<?xml version="1.0" encoding="utf-8"?>
<!-- Generator: Adobe Illustrator 19.1.0, SVG Export Plug-In . SVG Version: 6.00 Build 0)  -->
<svg version="1.1" id="Layer_1" xmlns="http://www.w3.org/2000/svg" xmlns:xlink="http://www.w3.org/1999/xlink" x="0px" y="0px"
	 viewBox="0 0 943.1 382.5" enable-background="new 0 0 943.1 382.5" xml:space="preserve">
<path fill="#FFFFFF" d="M371.2,7.1H222.1h-11.3h-5.3C165.2,7.1,44,41.6,42.3,42c-12.9,3.5-22.6,15.2-22.6,29.3
	c0,5.2,1.3,10.2,3.7,14.4l3.5,6.5l153.1,283c1,1.9,3,3,5,3c0.5,0,1,0,1.4-0.2c2.6-0.6,4.4-2.9,4.4-5.6V263.4h180.3
	c7.7,0,14-6.3,14-14V21.1C385.2,13.4,378.9,7.1,371.2,7.1z"/>
</svg>
