<?xml version="1.0" encoding="utf-8"?>
<!-- Generator: Adobe Illustrator 19.1.0, SVG Export Plug-In . SVG Version: 6.00 Build 0)  -->
<svg version="1.1" id="Layer_1" xmlns="http://www.w3.org/2000/svg" xmlns:xlink="http://www.w3.org/1999/xlink" x="0px" y="0px"
	 viewBox="-268 359 73.8 75" style="enable-background:new -268 359 73.8 75;" xml:space="preserve">
<style type="text/css">
	.st0{display:none;}
	.st1{display:inline;}
	.st2{fill:#010101;}
	.st3{fill:none;stroke:#010101;stroke-width:4;stroke-miterlimit:10;}
	.st4{fill:#231F20;}
	.st5{fill:#1D1D1B;}
	.st6{display:inline;opacity:0.6;fill:#00965E;enable-background:new    ;}
	.st7{display:inline;fill:none;stroke:#1D1D1B;stroke-width:2;stroke-miterlimit:10;}
	.st8{display:inline;opacity:0.8;fill:#F7A723;enable-background:new    ;}
	.st9{display:inline;opacity:0.8;fill:#EC6625;enable-background:new    ;}
	.st10{display:inline;fill:none;stroke:#004957;stroke-width:4;}
	.st11{display:inline;fill:#004957;}
	.st12{fill:#004957;}
	.st13{fill:#FFFFFF;}
	.st14{fill:#3D5A98;}
	.st15{fill:#29ABE2;}
	.st16{fill:#ED1C24;}
</style>
<g id="Layer_1_1_" class="st0">
	<g id="Last_ned" class="st1">
		<g>
			<path class="st2" d="M-490.2,738.2c1,1,1.5,2.1,1.5,3.4v43h-39.5v-43c0-1.4,0.5-2.5,1.4-3.4c0.9-0.9,2.1-1.4,3.4-1.4h29.8
				C-492.3,736.9-491.2,737.2-490.2,738.2z M-492.9,741.6c0-0.4-0.2-0.7-0.6-0.7h-29.9c-0.4,0-0.7,0.2-0.7,0.7v38.9h31.2
				C-492.9,780.5-492.9,741.6-492.9,741.6z M-517.8,753.5h18.7v-4.2h-18.7V753.5z M-517.8,763.9h18.7v-4.2h-18.7V763.9z
				 M-517.8,774.2h18.7V770h-18.7V774.2z M-471.4,727.8c0.9,0.9,1.4,2,1.4,3.2v41.2h-14.6V768h10.4v-37c0-0.3-0.2-0.4-0.7-0.4h-29.9
				c-0.4,0-0.6,0.1-0.6,0.4v1.7h-4.2V731c0-1.2,0.5-2.3,1.4-3.2c0.9-0.9,2.1-1.4,3.4-1.4h29.9C-473.4,726.5-472.2,726.9-471.4,727.8
				z"/>
		</g>
	</g>
	<g id="RSS" class="st1">
		<g>
			<circle class="st2" cx="-515.6" cy="772.6" r="4.1"/>
			<g>
				<path class="st2" d="M-520.5,749.8v4.8c5,0.5,11,2.9,14.9,6.8s6.8,9.6,7.2,14.6h4.8C-494.5,762-506.5,750.8-520.5,749.8z"/>
				<path class="st2" d="M-520.5,734.4v4.8c19,1,36.6,17.9,37.6,36.9h4.8C-479.1,754-498.5,735.4-520.5,734.4z"/>
			</g>
		</g>
	</g>
	<g id="Ekstern_link" class="st1">
		<g>
			<path class="st2" d="M-517.5,777c-0.9-0.9-1.4-2-1.4-3.2v-41.2h14.6v4.2h-10.4v37.1c0,0.3,0.2,0.4,0.7,0.4h29.9
				c0.4,0,0.6-0.1,0.6-0.4v-16.2h4.2v16.1c0,1.2-0.5,2.3-1.4,3.2s-2.1,1.4-3.4,1.4h-30C-515.4,778.4-516.6,777.9-517.5,777z"/>
			<path class="st2" d="M-479.3,732.6v18.3h-3.7V739l-15,14.9l-2.7-2.7l14.9-14.9h-11.9v-3.6L-479.3,732.6z"/>
		</g>
	</g>
	<g id="Pil" class="st1">
		<polyline class="st3" points="-504.8,744.2 -493.4,755.5 -504.8,766.8 		"/>
	</g>
	<g id="Kollaps_åpen" class="st1">
		<polyline class="st2" points="-510.8,757.3 -487.4,757.3 -487.4,753.7 -510.8,753.7 		"/>
	</g>
	<g id="Kollaps_lukket" class="st1">
		<polygon class="st2" points="-487.4,753.7 -497.3,753.7 -497.3,743.8 -500.9,743.8 -500.9,753.7 -510.8,753.7 -510.8,757.3 
			-500.9,757.3 -500.9,767.2 -497.3,767.2 -497.3,757.3 -487.4,757.3 		"/>
	</g>
</g>
<g id="Spørsmål" class="st0">
	<g class="st1">
		<path d="M-498.7,767.9c-0.9,0-1.6,0.3-2.2,0.9s-0.9,1.4-0.9,2.2c0,0.9,0.3,1.6,0.9,2.2s1.4,0.9,2.2,0.9c0.9,0,1.6-0.3,2.2-0.9
			c0.6-0.6,0.9-1.4,0.9-2.2c0-0.9-0.3-1.6-0.9-2.2C-497.1,768.2-497.8,767.9-498.7,767.9z"/>
		<path d="M-495.1,757.3c0.3-0.4,0.8-0.8,1.3-1.3l0.5-0.5l3.1-3.2c0.6-0.8,1.2-1.7,1.5-2.7c0.4-0.9,0.5-2.1,0.5-3.3
			c0-1.5-0.3-2.8-0.8-3.9c-0.5-1.1-1.2-2.1-2.1-2.9s-2-1.4-3.2-1.8c-1.2-0.4-2.6-0.6-4-0.6c-2.9,0-5.4,0.8-7.4,2.5
			c-1.9,1.6-3.1,3.8-3.6,6.6l4.7,0.5c0.2-1.7,0.9-3,1.9-4.1c1.1-1.1,2.5-1.7,4.3-1.7c0.8,0,1.5,0.1,2.2,0.4s1.3,0.7,1.8,1.2
			s0.9,1.1,1.2,1.8s0.5,1.5,0.5,2.3s-0.2,1.6-0.5,2.2s-0.7,1.3-1.1,1.9c-0.4,0.6-1,1.1-1.5,1.7c-0.6,0.5-1.1,1.1-1.7,1.6
			c-0.7,0.6-1.3,1.2-1.7,1.7c-0.4,0.4-0.8,0.9-1.1,1.4s-0.5,1-0.7,1.6c-0.1,0.6-0.3,1.4-0.3,2.3v2.2h4v-1.3c0-0.7,0.3-1.3,0.4-1.8
			c0.1-0.5,0.4-1,0.6-1.4C-495.9,758.1-495.4,757.7-495.1,757.3z"/>
		<path class="st4" d="M-499.1,789.6c-18.8,0-34.1-15.3-34.1-34.1c0-18.8,15.3-34.1,34.1-34.1s34.1,15.3,34.1,34.1
			C-465,774.3-480.3,789.6-499.1,789.6z M-499.1,725.4c-16.6,0-30.1,13.5-30.1,30.1s13.5,30.1,30.1,30.1s30.1-13.5,30.1-30.1
			S-482.5,725.4-499.1,725.4z"/>
	</g>
</g>
<g id="Svar" class="st0">
	<g class="st1">
		<g>
			<g>
				<path d="M-498.7,767.5c-0.9,0-1.7,0.3-2.4,1c-0.7,0.7-1,1.5-1,2.4c0,0.9,0.3,1.7,1,2.4c0.7,0.7,1.5,1,2.4,1c0.9,0,1.7-0.3,2.4-1
					c0.7-0.7,1-1.5,1-2.4c0-0.9-0.3-1.7-1-2.4C-497,767.9-497.8,767.5-498.7,767.5z"/>
			</g>
			<rect x="-500.9" y="736.7" width="4.5" height="25.4"/>
		</g>
		<path class="st4" d="M-499.1,789.6c-18.8,0-34.1-15.3-34.1-34.1c0-18.8,15.3-34.1,34.1-34.1s34.1,15.3,34.1,34.1
			C-465,774.3-480.3,789.6-499.1,789.6z M-499.1,725.4c-16.6,0-30.1,13.5-30.1,30.1s13.5,30.1,30.1,30.1s30.1-13.5,30.1-30.1
			S-482.5,725.4-499.1,725.4z"/>
	</g>
</g>
<g id="Check" class="st0">
	<g class="st1">
		<path class="st4" d="M-499.1,789.6c-18.8,0-34.1-15.3-34.1-34.1c0-18.8,15.3-34.1,34.1-34.1s34.1,15.3,34.1,34.1
			C-465,774.3-480.3,789.6-499.1,789.6z M-499.1,725.4c-16.6,0-30.1,13.5-30.1,30.1s13.5,30.1,30.1,30.1s30.1-13.5,30.1-30.1
			S-482.5,725.4-499.1,725.4z"/>
		<polygon class="st5" points="-501.2,761.1 -510.4,754.6 -513.1,758.1 -500.6,766.9 -482,745 -487.9,745 		"/>
	</g>
</g>
<g id="Pen" class="st0">
	<g class="st1">
		<path class="st4" d="M-499.1,789.6c-18.8,0-34.1-15.3-34.1-34.1c0-18.8,15.3-34.1,34.1-34.1s34.1,15.3,34.1,34.1
			C-465,774.3-480.3,789.6-499.1,789.6z M-499.1,725.4c-16.6,0-30.1,13.5-30.1,30.1s13.5,30.1,30.1,30.1s30.1-13.5,30.1-30.1
			S-482.5,725.4-499.1,725.4z"/>
		<path class="st4" d="M-485.4,743.3c-0.2-1-0.7-1.7-1.4-2.1l-4.9-3.3c-0.7-0.5-1.6-0.6-2.6-0.3c-0.9,0.3-1.6,0.8-2.1,1.5
			l-11.9,17.8l-1.5,13.8l12.1-6.8l11.8-17.8C-485.4,745.2-485.2,744.3-485.4,743.3z M-488.8,744l-11.3,17.2l-3.2,1.8l-2.1-1.5
			l0.4-3.5l11.3-17.1l0.1-0.1l0,0L-488.8,744L-488.8,744z"/>
		<g>
			<rect x="-509.7" y="768.8" class="st5" width="19.5" height="2"/>
		</g>
	</g>
</g>
<g id="Good_smiley" class="st0">
	<circle class="st6" cx="-499.1" cy="756.1" r="30.4"/>
	<g class="st1">
		<circle class="st5" cx="-507.3" cy="747.8" r="3.3"/>
		<circle class="st5" cx="-490.9" cy="747.8" r="3.3"/>
	</g>
	<path class="st7" d="M-487,758.5c0,6.7-5.4,12.1-12.1,12.1c-6.7,0-12.1-5.4-12.1-12.1"/>
</g>
<g id="Mid_smiley" class="st0">
	<circle class="st8" cx="-499.1" cy="756.1" r="30.4"/>
	<g class="st1">
		<circle class="st5" cx="-507.3" cy="747.8" r="3.3"/>
		<circle class="st5" cx="-490.9" cy="747.8" r="3.3"/>
	</g>
	<line class="st7" x1="-508.9" y1="763.2" x2="-489.3" y2="763.2"/>
</g>
<g id="Bad_smiley" class="st0">
	<circle class="st9" cx="-499.1" cy="756.1" r="30.4"/>
	<g class="st1">
		<circle class="st5" cx="-507.3" cy="747.8" r="3.3"/>
		<circle class="st5" cx="-490.9" cy="747.8" r="3.3"/>
	</g>
	<path class="st7" d="M-511.2,771.6c0-6.7,5.4-12.1,12.1-12.1c6.7,0,12.1,5.4,12.1,12.1"/>
</g>
<g id="Blue_check" class="st0">
	<circle class="st10" cx="-499.1" cy="755.1" r="30.4"/>
	<polygon class="st11" points="-502.8,761.9 -511.9,755.3 -514.6,758.7 -502.1,767.7 -483.6,746 -489.4,746 	"/>
</g>
<g id="Blue_question" class="st0">
	<circle class="st10" cx="-499.1" cy="755.1" r="30.4"/>
	<g class="st1">
		<path class="st12" d="M-499.1,766.4c-0.8,0-1.5,0.3-2.1,0.9s-0.9,1.3-0.9,2.1c0,0.8,0.3,1.5,0.9,2.1c0.6,0.6,1.3,0.9,2.1,0.9
			s1.5-0.3,2.1-0.9s0.9-1.3,0.9-2.1c0-0.8-0.3-1.5-0.9-2.1C-497.6,766.7-498.3,766.4-499.1,766.4z"/>
		<path class="st12" d="M-490.3,744.1c-0.5-1-1.1-1.9-1.9-2.6s-1.8-1.3-2.9-1.6c-1.1-0.4-2.3-0.6-3.6-0.6c-2.7,0-4.9,0.7-6.7,2.2
			s-2.9,3.5-3.3,6.2l4.6,0.5c0.2-1.5,0.7-2.7,1.7-3.7c0.9-0.9,2.1-1.4,3.6-1.4c0.7,0,1.3,0.1,1.9,0.4c0.6,0.2,1.1,0.6,1.5,1
			s0.8,0.9,1,1.5c0.3,0.6,0.4,1.2,0.4,1.9c0,0.7-0.1,1.3-0.4,1.9c-0.3,0.6-0.6,1.1-1,1.6s-0.8,1-1.3,1.4c-0.5,0.5-1,0.9-1.4,1.4
			c-0.6,0.6-1.1,1.1-1.5,1.5c-0.4,0.4-0.7,0.8-1,1.3c-0.2,0.4-0.4,0.9-0.5,1.5c-0.1,0.5-0.2,1.2-0.2,2v2.8h4.3v-2
			c0-0.6,0-1.2,0.1-1.6c0.1-0.4,0.2-0.8,0.3-1.2c0.2-0.3,0.4-0.7,0.7-1c0.3-0.3,0.7-0.7,1.2-1.2l0.5-0.4l2.7-2.8
			c0.6-0.8,1.1-1.6,1.4-2.4c0.3-0.9,0.5-1.9,0.5-3C-489.6,746.3-489.8,745.1-490.3,744.1z"/>
	</g>
</g>
<g id="Blue_cross" class="st0">
	<circle class="st10" cx="-499.1" cy="754.8" r="30.4"/>
	<polygon class="st11" points="-486.6,739.3 -499.1,751.8 -511.6,739.3 -514.6,742.3 -502.1,754.8 -514.6,767.3 -511.6,770.3 
		-499.1,757.8 -486.6,770.3 -483.6,767.3 -496.1,754.8 -483.6,742.3 	"/>
</g>
<g id="facebook-black" class="st0">
	<g class="st1">
		<circle cx="-499.1" cy="755.5" r="35.8"/>
		<path id="f_27_" class="st13" d="M-496.3,777.5v-19.6h6.6l1-7.6h-7.6v-4.9c0-2.2,0.6-3.7,3.8-3.7h4v-6.8c-0.7-0.1-3.1-0.3-5.9-0.3
			c-5.8,0-9.8,3.6-9.8,10.1v5.6h-6.6v7.6h6.6v19.6H-496.3L-496.3,777.5z"/>
	</g>
</g>
<g id="twitter-black" class="st0">
	<g class="st1">
		<circle cx="-499.1" cy="755.5" r="35.8"/>
		<path class="st13" d="M-499.1,748.8c0,0-9.2,0.9-20.1-9.8c0,0-4.5,6.3,2.5,12.3c0,0-0.3,1.3-4-0.9c0,0-0.6,7.2,7.4,9.4
			c0,0-2.4,1.1-4.2,0c0,0,2.5,7.4,9,6.7c0,0-6.3,5.5-14.2,4.3c0,0,17.4,10.5,32.1-2.2c0,0,11-9.2,9.8-22.1c0,0,2.5-1.7,4.9-5
			c0,0-3.5,1.6-5.4,1.4c0,0,3.5-2.4,4-5.2c0,0-4.2,2-5.9,2.3c0,0-2.7-3.5-8.3-3.1C-497,737.4-501.4,744.6-499.1,748.8z"/>
	</g>
</g>
<g id="youtube-black" class="st0">
	<g class="st1">
		<circle cx="-499.1" cy="755.5" r="35.8"/>
		<g>
			<path class="st13" d="M-478,764.7c0,2.4-3,6.3-7,6.3h-27.5c-3.8,0-8.5-1.6-8.5-6.3v-17.3c0-4,2.3-8.4,7.4-8.4h27.9
				c6,0,7.8,6,7.8,8.4L-478,764.7L-478,764.7z"/>
			<polygon points="-493.1,755.8 -505,761.9 -505,749.8 			"/>
		</g>
	</g>
</g>
<g id="facebook-hover">
	<g>
		<circle class="st14" cx="-231.1" cy="396.5" r="35.8"/>
		<path id="f_26_" class="st13" d="M-228.3,418.5v-19.6h6.6l1-7.6h-7.6v-4.9c0-2.2,0.6-3.7,3.8-3.7h4v-6.8c-0.7-0.1-3.1-0.3-5.9-0.3
			c-5.8,0-9.8,3.6-9.8,10.1v5.6h-6.6v7.6h6.6v19.6L-228.3,418.5L-228.3,418.5z"/>
	</g>
</g>
<g id="twitter-hover" class="st0">
	<g class="st1">
		<circle class="st15" cx="-499.1" cy="755.5" r="35.8"/>
		<path class="st13" d="M-499.1,748.8c0,0-9.2,0.9-20.1-9.8c0,0-4.5,6.3,2.5,12.3c0,0-0.3,1.3-4-0.9c0,0-0.6,7.2,7.4,9.4
			c0,0-2.4,1.1-4.2,0c0,0,2.5,7.4,9,6.7c0,0-6.3,5.5-14.2,4.3c0,0,17.4,10.5,32.1-2.2c0,0,11-9.2,9.8-22.1c0,0,2.5-1.7,4.9-5
			c0,0-3.5,1.6-5.4,1.4c0,0,3.5-2.4,4-5.2c0,0-4.2,2-5.9,2.3c0,0-2.7-3.5-8.3-3.1C-497,737.4-501.4,744.6-499.1,748.8z"/>
	</g>
</g>
<g id="youtube-hover" class="st0">
	<g class="st1">
		<circle class="st16" cx="-499.1" cy="755.5" r="35.8"/>
		<g>
			<path class="st13" d="M-478,764.7c0,2.4-3,6.3-7,6.3h-27.5c-3.8,0-8.5-1.6-8.5-6.3v-17.3c0-4,2.3-8.4,7.4-8.4h27.9
				c6,0,7.8,6,7.8,8.4L-478,764.7L-478,764.7z"/>
			<polygon class="st16" points="-493.1,755.8 -505,761.9 -505,749.8 			"/>
		</g>
	</g>
</g>
</svg>
