<?xml version="1.0" encoding="utf-8"?>
<!-- Generator: Adobe Illustrator 19.1.0, SVG Export Plug-In . SVG Version: 6.00 Build 0)  -->
<svg version="1.1" xmlns="http://www.w3.org/2000/svg" xmlns:xlink="http://www.w3.org/1999/xlink" x="0px" y="0px"
	 viewBox="0 0 73.8 75" style="enable-background:new 0 0 73.8 75;" xml:space="preserve">
<style type="text/css">
	.st0{fill:#010101;}
	.st1{display:none;}
	.st2{display:inline;}
</style>
<g id="Last_ned">
	<g>
		<path class="st0" d="M47.7,22.1c1,1,1.5,2.1,1.5,3.4v43H9.7v-43c0-1.4,0.5-2.5,1.4-3.4s2.1-1.4,3.4-1.4h29.8
			C45.6,20.7,46.7,21.1,47.7,22.1z M45.1,25.5c0-0.4-0.2-0.7-0.6-0.7H14.5c-0.4,0-0.7,0.2-0.7,0.7v38.9h31.2V25.5z M20.1,37.3h18.7
			v-4.2H20.1V37.3z M20.1,47.7h18.7v-4.2H20.1V47.7z M20.1,58.1h18.7V54H20.1V58.1z M66.6,11.6c0.9,0.9,1.4,2,1.4,3.2V56H53.4v-4.2
			h10.4V14.8c0-0.3-0.2-0.4-0.7-0.4H33.2c-0.4,0-0.6,0.1-0.6,0.4v1.7h-4.2v-1.7c0-1.2,0.5-2.3,1.4-3.2c0.9-0.9,2.1-1.4,3.4-1.4h29.9
			C64.5,10.3,65.7,10.7,66.6,11.6z"/>
	</g>
</g>
<g id="Layer_2" class="st1">
	<g class="st2">
		<circle class="st0" cx="22" cy="57.4" r="4.1"/>
		<g>
			<path class="st0" d="M17.5,34.7v4.8c5,0.5,10.8,3,14.7,6.9c3.9,3.9,6.6,9.7,7,14.7H44C43.1,47,31.5,35.7,17.5,34.7z"/>
			<path class="st0" d="M17.5,19.2V24c19,1,36.1,18,37.1,37h4.8C58.5,39,39.5,20.2,17.5,19.2z"/>
		</g>
	</g>
</g>
</svg>
