<?xml version="1.0" encoding="utf-8"?>
<!-- Generator: Adobe Illustrator 19.1.0, SVG Export Plug-In . SVG Version: 6.00 Build 0)  -->
<svg version="1.1" id="Layer_1" xmlns="http://www.w3.org/2000/svg" xmlns:xlink="http://www.w3.org/1999/xlink" x="0px" y="0px"
	 viewBox="0 0 58.3 59.5" style="enable-background:new 0 0 58.3 59.5;" xml:space="preserve">
<style type="text/css">
	.st0{fill:url(#SVGID_1_);}
	.st1{fill:url(#SVGID_2_);}
	.st2{opacity:0.3;fill:#094A58;}
	.st3{fill:url(#SVGID_3_);}
</style>
<g>
	<g>
		<g>
			<radialGradient id="SVGID_1_" cx="44.2638" cy="42.4589" r="27.2552" gradientUnits="userSpaceOnUse">
				<stop  offset="0.135" style="stop-color:#52BAC7"/>
				<stop  offset="0.2437" style="stop-color:#4DB4C3"/>
				<stop  offset="0.3959" style="stop-color:#3EA6B7"/>
				<stop  offset="0.573" style="stop-color:#2191A5"/>
				<stop  offset="0.6503" style="stop-color:#08869C"/>
				<stop  offset="0.9264" style="stop-color:#094A58"/>
			</radialGradient>
			<path class="st0" d="M27.3,20.4v20.1h13.9c1.2,0,2.2-1,2.2-2.2V20.4H27.3z"/>
			<g>
				<g>
					<g>
						<g>
							<g>
								<g>
									<radialGradient id="SVGID_2_" cx="54.6318" cy="18.2219" r="32.6671" gradientUnits="userSpaceOnUse">
										<stop  offset="0.135" style="stop-color:#52BAC7"/>
										<stop  offset="0.2437" style="stop-color:#4DB4C3"/>
										<stop  offset="0.3959" style="stop-color:#3EA6B7"/>
										<stop  offset="0.573" style="stop-color:#2191A5"/>
										<stop  offset="0.6503" style="stop-color:#08869C"/>
										<stop  offset="0.8978" style="stop-color:#094A58"/>
									</radialGradient>
									<path class="st1" d="M55.4,0.6H31.6c-2.8,1.4-4.3,3.6-4.3,8.1v1.6v10.3h28.1c1.2,0,2.2-1,2.2-2.2V2.8
										C57.6,1.6,56.6,0.6,55.4,0.6z"/>
								</g>
							</g>
						</g>
					</g>
				</g>
			</g>
			<path class="st2" d="M31.5,40.5V10.6V9c0-4.8,1.7-7,4.9-8.4h-3.9c-3.2,1.3-4.9,3.5-4.9,8.4v1.6v29.8H31.5z"/>
			<radialGradient id="SVGID_3_" cx="28.2736" cy="19.7006" r="40.9929" gradientUnits="userSpaceOnUse">
				<stop  offset="0.1166" style="stop-color:#52BAC7"/>
				<stop  offset="0.4472" style="stop-color:#3BA3B4"/>
				<stop  offset="0.865" style="stop-color:#08869C"/>
			</radialGradient>
			<path class="st3" d="M29.8,0.6C23.6,0.6,4.7,6,4.4,6c-2,0.5-3.5,2.4-3.5,4.6c0,0.8,0.2,1.6,0.6,2.2l0.5,1l23.9,44.1
				c0.2,0.3,0.5,0.5,0.8,0.5c0.1,0,0.1,0,0.2,0c0.4-0.1,0.7-0.5,0.7-0.9V10.6V9c0-4.8,1.6-7,4.9-8.4H29.8z"/>
		</g>
	</g>
</g>
</svg>
