<?xml version="1.0" encoding="utf-8"?>
<!-- Generator: Adobe Illustrator 19.1.0, SVG Export Plug-In . SVG Version: 6.00 Build 0)  -->
<svg version="1.1" xmlns="http://www.w3.org/2000/svg" xmlns:xlink="http://www.w3.org/1999/xlink" x="0px" y="0px"
	 viewBox="-268 359 73.8 75" style="enable-background:new -268 359 73.8 75;" xml:space="preserve">
<style type="text/css">
	.st0{display:none;}
	.st1{display:inline;}
	.st2{fill:#010101;}
	.st3{display:inline;fill:none;stroke:#010101;stroke-width:4;stroke-miterlimit:10;}
	.st4{display:inline;fill:#010101;}
	.st5{fill:#231F20;}
	.st6{fill:#1D1D1B;}
	.st7{display:inline;opacity:0.6;fill:#00965E;}
	.st8{display:inline;fill:none;stroke:#1D1D1B;stroke-width:2;stroke-miterlimit:10;}
	.st9{display:inline;opacity:0.8;fill:#F7A723;}
	.st10{display:inline;opacity:0.8;fill:#EC6625;}
	.st11{display:inline;fill:none;stroke:#004957;stroke-width:4;}
	.st12{display:inline;fill:#004957;}
	.st13{fill:#004957;}
	.st14{fill:#FFFFFF;}
	.st15{fill:#3D5A98;}
	.st16{fill:#29ABE2;}
	.st17{fill:#ED1C24;}
</style>
<g id="Layer_1" class="st0">
	<g id="Last_ned" class="st1">
		<g>
			<path class="st2" d="M-222.2,379.2c1,1,1.5,2.1,1.5,3.4v43h-39.5v-43c0-1.4,0.5-2.5,1.4-3.4s2.1-1.4,3.4-1.4h29.8
				C-224.3,377.9-223.2,378.2-222.2,379.2z M-224.9,382.6c0-0.4-0.2-0.7-0.6-0.7h-29.9c-0.4,0-0.7,0.2-0.7,0.7v38.9h31.2
				C-224.9,421.5-224.9,382.6-224.9,382.6z M-249.8,394.5h18.7v-4.2h-18.7V394.5z M-249.8,404.9h18.7v-4.2h-18.7V404.9z
				 M-249.8,415.2h18.7V411h-18.7V415.2z M-203.4,368.8c0.9,0.9,1.4,2,1.4,3.2v41.2h-14.6V409h10.4V372c0-0.3-0.2-0.4-0.7-0.4h-29.9
				c-0.4,0-0.6,0.1-0.6,0.4v1.7h-4.2V372c0-1.2,0.5-2.3,1.4-3.2c0.9-0.9,2.1-1.4,3.4-1.4h29.9C-205.4,367.5-204.2,367.9-203.4,368.8
				z"/>
		</g>
	</g>
	<g id="RSS">
		<g class="st1">
			<circle class="st2" cx="-247.6" cy="413.6" r="4.1"/>
			<g>
				<path class="st2" d="M-252.5,390.8v4.8c5,0.5,11,2.9,14.9,6.8c3.9,3.9,6.8,9.6,7.2,14.6h4.8C-226.5,403-238.5,391.8-252.5,390.8
					z"/>
				<path class="st2" d="M-252.5,375.4v4.8c19,1,36.6,17.9,37.6,36.9h4.8C-211.1,395-230.5,376.4-252.5,375.4z"/>
			</g>
		</g>
	</g>
	<g id="Ekstern_link">
		<g class="st1">
			<path class="st2" d="M-249.5,418c-0.9-0.9-1.4-2-1.4-3.2v-41.2h14.6v4.2h-10.4v37.1c0,0.3,0.2,0.4,0.7,0.4h29.9
				c0.4,0,0.6-0.1,0.6-0.4v-16.2h4.2v16.1c0,1.2-0.5,2.3-1.4,3.2c-0.9,0.9-2.1,1.4-3.4,1.4h-30C-247.4,419.4-248.6,418.9-249.5,418z
				"/>
			<path class="st2" d="M-211.3,373.6v18.3h-3.7V380l-15,14.9l-2.7-2.7l14.9-14.9h-11.9v-3.6L-211.3,373.6z"/>
		</g>
	</g>
	<g id="Pil">
		<polyline class="st3" points="-236.8,385.2 -225.4,396.5 -236.8,407.8 		"/>
	</g>
	<g id="Kollaps_åpen">
		<polyline class="st4" points="-242.8,398.3 -219.4,398.3 -219.4,394.7 -242.8,394.7 		"/>
	</g>
	<g id="Kollaps_lukket">
		<polygon class="st4" points="-219.4,394.7 -229.3,394.7 -229.3,384.8 -232.9,384.8 -232.9,394.7 -242.8,394.7 -242.8,398.3 
			-232.9,398.3 -232.9,408.2 -229.3,408.2 -229.3,398.3 -219.4,398.3 		"/>
	</g>
</g>
<g id="Spørsmål" class="st0">
	<g class="st1">
		<path d="M-230.7,408.9c-0.9,0-1.6,0.3-2.2,0.9c-0.6,0.6-0.9,1.4-0.9,2.2c0,0.9,0.3,1.6,0.9,2.2c0.6,0.6,1.4,0.9,2.2,0.9
			c0.9,0,1.6-0.3,2.2-0.9c0.6-0.6,0.9-1.4,0.9-2.2c0-0.9-0.3-1.6-0.9-2.2C-229.1,409.2-229.8,408.9-230.7,408.9z"/>
		<path d="M-227.1,398.3c0.3-0.4,0.8-0.8,1.3-1.3l0.5-0.5l3.1-3.2c0.6-0.8,1.2-1.7,1.5-2.7c0.4-0.9,0.5-2.1,0.5-3.3
			c0-1.5-0.3-2.8-0.8-3.9c-0.5-1.1-1.2-2.1-2.1-2.9c-0.9-0.8-2-1.4-3.2-1.8c-1.2-0.4-2.6-0.6-4-0.6c-2.9,0-5.4,0.8-7.4,2.5
			c-1.9,1.6-3.1,3.8-3.6,6.6l4.7,0.5c0.2-1.7,0.9-3,1.9-4.1c1.1-1.1,2.5-1.7,4.3-1.7c0.8,0,1.5,0.1,2.2,0.4c0.7,0.3,1.3,0.7,1.8,1.2
			c0.5,0.5,0.9,1.1,1.2,1.8c0.3,0.7,0.5,1.5,0.5,2.3c0,0.8-0.2,1.6-0.5,2.2c-0.3,0.6-0.7,1.3-1.1,1.9c-0.4,0.6-1,1.1-1.5,1.7
			c-0.6,0.5-1.1,1.1-1.7,1.6c-0.7,0.6-1.3,1.2-1.7,1.7c-0.4,0.4-0.8,0.9-1.1,1.4c-0.3,0.5-0.5,1-0.7,1.6c-0.1,0.6-0.3,1.4-0.3,2.3
			v2.2h4v-1.3c0-0.7,0.3-1.3,0.4-1.8c0.1-0.5,0.4-1,0.6-1.4C-227.9,399.1-227.4,398.7-227.1,398.3z"/>
		<path class="st5" d="M-231.1,430.6c-18.8,0-34.1-15.3-34.1-34.1c0-18.8,15.3-34.1,34.1-34.1c18.8,0,34.1,15.3,34.1,34.1
			C-197,415.3-212.3,430.6-231.1,430.6z M-231.1,366.4c-16.6,0-30.1,13.5-30.1,30.1s13.5,30.1,30.1,30.1s30.1-13.5,30.1-30.1
			S-214.5,366.4-231.1,366.4z"/>
	</g>
</g>
<g id="Svar" class="st0">
	<g class="st1">
		<g>
			<g>
				<path d="M-230.7,408.5c-0.9,0-1.7,0.3-2.4,1c-0.7,0.7-1,1.5-1,2.4s0.3,1.7,1,2.4c0.7,0.7,1.5,1,2.4,1c0.9,0,1.7-0.3,2.4-1
					c0.7-0.7,1-1.5,1-2.4s-0.3-1.7-1-2.4C-229,408.9-229.8,408.5-230.7,408.5z"/>
			</g>
			<rect x="-232.9" y="377.7" width="4.5" height="25.4"/>
		</g>
		<path class="st5" d="M-231.1,430.6c-18.8,0-34.1-15.3-34.1-34.1c0-18.8,15.3-34.1,34.1-34.1c18.8,0,34.1,15.3,34.1,34.1
			C-197,415.3-212.3,430.6-231.1,430.6z M-231.1,366.4c-16.6,0-30.1,13.5-30.1,30.1s13.5,30.1,30.1,30.1s30.1-13.5,30.1-30.1
			S-214.5,366.4-231.1,366.4z"/>
	</g>
</g>
<g id="Check" class="st0">
	<g class="st1">
		<path class="st5" d="M-231.1,430.6c-18.8,0-34.1-15.3-34.1-34.1c0-18.8,15.3-34.1,34.1-34.1c18.8,0,34.1,15.3,34.1,34.1
			C-197,415.3-212.3,430.6-231.1,430.6z M-231.1,366.4c-16.6,0-30.1,13.5-30.1,30.1s13.5,30.1,30.1,30.1s30.1-13.5,30.1-30.1
			S-214.5,366.4-231.1,366.4z"/>
		<polygon class="st6" points="-233.2,402.1 -242.4,395.6 -245.1,399.1 -232.6,407.9 -214,386 -219.9,386 		"/>
	</g>
</g>
<g id="Pen">
	<g>
		<path class="st5" d="M-231.1,430.6c-18.8,0-34.1-15.3-34.1-34.1c0-18.8,15.3-34.1,34.1-34.1c18.8,0,34.1,15.3,34.1,34.1
			C-197,415.3-212.3,430.6-231.1,430.6z M-231.1,366.4c-16.6,0-30.1,13.5-30.1,30.1s13.5,30.1,30.1,30.1s30.1-13.5,30.1-30.1
			S-214.5,366.4-231.1,366.4z"/>
		<path class="st5" d="M-217.4,384.3c-0.2-1-0.7-1.7-1.4-2.1l-4.9-3.3c-0.7-0.5-1.6-0.6-2.6-0.3c-0.9,0.3-1.6,0.8-2.1,1.5
			l-11.9,17.8l-1.5,13.8l12.1-6.8l11.8-17.8C-217.4,386.2-217.2,385.3-217.4,384.3z M-220.8,385l-11.3,17.2l-3.2,1.8l-2.1-1.5
			l0.4-3.5l11.3-17.1l0.1-0.1c0,0,0,0,0,0L-220.8,385C-220.8,385-220.8,385-220.8,385z"/>
		<g>
			<rect x="-241.7" y="409.8" class="st6" width="19.5" height="2"/>
		</g>
	</g>
</g>
<g id="Good_smiley" class="st0">
	<circle class="st7" cx="-231.1" cy="397.1" r="30.4"/>
	<g class="st1">
		<circle class="st6" cx="-239.3" cy="388.8" r="3.3"/>
		<circle class="st6" cx="-222.9" cy="388.8" r="3.3"/>
	</g>
	<path class="st8" d="M-219,399.5c0,6.7-5.4,12.1-12.1,12.1c-6.7,0-12.1-5.4-12.1-12.1"/>
</g>
<g id="Mid_smiley" class="st0">
	<circle class="st9" cx="-231.1" cy="397.1" r="30.4"/>
	<g class="st1">
		<circle class="st6" cx="-239.3" cy="388.8" r="3.3"/>
		<circle class="st6" cx="-222.9" cy="388.8" r="3.3"/>
	</g>
	<line class="st8" x1="-240.9" y1="404.2" x2="-221.3" y2="404.2"/>
</g>
<g id="Bad_smiley" class="st0">
	<circle class="st10" cx="-231.1" cy="397.1" r="30.4"/>
	<g class="st1">
		<circle class="st6" cx="-239.3" cy="388.8" r="3.3"/>
		<circle class="st6" cx="-222.9" cy="388.8" r="3.3"/>
	</g>
	<path class="st8" d="M-243.2,412.6c0-6.7,5.4-12.1,12.1-12.1c6.7,0,12.1,5.4,12.1,12.1"/>
</g>
<g id="Blue_check" class="st0">
	<circle class="st11" cx="-231.1" cy="396.1" r="30.4"/>
	<polygon class="st12" points="-234.8,402.9 -243.9,396.3 -246.6,399.7 -234.1,408.7 -215.6,387 -221.4,387 	"/>
</g>
<g id="Blue_question" class="st0">
	<circle class="st11" cx="-231.1" cy="396.1" r="30.4"/>
	<g class="st1">
		<path class="st13" d="M-231.1,407.4c-0.8,0-1.5,0.3-2.1,0.9c-0.6,0.6-0.9,1.3-0.9,2.1s0.3,1.5,0.9,2.1c0.6,0.6,1.3,0.9,2.1,0.9
			c0.8,0,1.5-0.3,2.1-0.9c0.6-0.6,0.9-1.3,0.9-2.1s-0.3-1.5-0.9-2.1C-229.6,407.7-230.3,407.4-231.1,407.4z"/>
		<path class="st13" d="M-222.3,385.1c-0.5-1-1.1-1.9-1.9-2.6c-0.8-0.7-1.8-1.3-2.9-1.6c-1.1-0.4-2.3-0.6-3.6-0.6
			c-2.7,0-4.9,0.7-6.7,2.2c-1.8,1.5-2.9,3.5-3.3,6.2l4.6,0.5c0.2-1.5,0.7-2.7,1.7-3.7c0.9-0.9,2.1-1.4,3.6-1.4
			c0.7,0,1.3,0.1,1.9,0.4c0.6,0.2,1.1,0.6,1.5,1c0.4,0.4,0.8,0.9,1,1.5c0.3,0.6,0.4,1.2,0.4,1.9c0,0.7-0.1,1.3-0.4,1.9
			c-0.3,0.6-0.6,1.1-1,1.6s-0.8,1-1.3,1.4c-0.5,0.5-1,0.9-1.4,1.4c-0.6,0.6-1.1,1.1-1.5,1.5c-0.4,0.4-0.7,0.8-1,1.3
			c-0.2,0.4-0.4,0.9-0.5,1.5c-0.1,0.5-0.2,1.2-0.2,2v2.8h4.3v-2c0-0.6,0-1.2,0.1-1.6c0.1-0.4,0.2-0.8,0.3-1.2c0.2-0.3,0.4-0.7,0.7-1
			c0.3-0.3,0.7-0.7,1.2-1.2l0.5-0.4l2.7-2.8c0.6-0.8,1.1-1.6,1.4-2.4c0.3-0.9,0.5-1.9,0.5-3C-221.6,387.3-221.8,386.1-222.3,385.1z"
			/>
	</g>
</g>
<g id="Blue_cross" class="st0">
	<circle class="st11" cx="-231.1" cy="395.8" r="30.4"/>
	<polygon class="st12" points="-218.6,380.3 -231.1,392.8 -243.6,380.3 -246.6,383.3 -234.1,395.8 -246.6,408.3 -243.6,411.3 
		-231.1,398.8 -218.6,411.3 -215.6,408.3 -228.1,395.8 -215.6,383.3 	"/>
</g>
<g id="facebook-black" class="st0">
	<g class="st1">
		<circle cx="-231.1" cy="396.5" r="22.5"/>
		<path id="f_27_" class="st14" d="M-229.4,410.3V398h4.1l0.6-4.8h-4.8v-3.1c0-1.4,0.4-2.3,2.4-2.3l2.5,0v-4.3
			c-0.4-0.1-1.9-0.2-3.7-0.2c-3.7,0-6.2,2.2-6.2,6.3v3.5h-4.1v4.8h4.1v12.3H-229.4z"/>
	</g>
</g>
<g id="twitter-black" class="st0">
	<g class="st1">
		<circle cx="-231.1" cy="396.5" r="22.5"/>
		<path class="st14" d="M-231.1,392.3c0,0-5.8,0.6-12.6-6.1c0,0-2.8,4,1.6,7.7c0,0-0.2,0.8-2.5-0.6c0,0-0.4,4.5,4.6,5.9
			c0,0-1.5,0.7-2.6,0c0,0,1.6,4.7,5.7,4.2c0,0-3.9,3.5-8.9,2.7c0,0,10.9,6.6,20.1-1.4c0,0,6.9-5.8,6.1-13.9c0,0,1.5-1.1,3.1-3.1
			c0,0-2.2,1-3.4,0.9c0,0,2.2-1.5,2.5-3.3c0,0-2.6,1.3-3.7,1.4c0,0-1.7-2.2-5.2-2C-229.8,385.2-232.5,389.7-231.1,392.3z"/>
	</g>
</g>
<g id="youtube-black" class="st0">
	<g class="st1">
		<circle cx="-231.1" cy="396.5" r="22.5"/>
		<g>
			<path class="st14" d="M-218,402.3c0,1.5-1.8,3.7-4.3,3.7h-17.3c-2.4,0-5.5-0.7-5.5-3.7v-10.8c0-2.5,1.6-5.4,4.8-5.4h17.5
				c3.7,0,4.7,3.9,4.7,5.4V402.3z"/>
			<polygon points="-227.5,396.7 -235,400.5 -235,392.9 			"/>
		</g>
	</g>
</g>
<g id="facebook-hover" class="st0">
	<g class="st1">
		<circle class="st15" cx="-231.1" cy="396.5" r="22.5"/>
		<path id="f_26_" class="st14" d="M-229.4,410.3V398h4.1l0.6-4.8h-4.8v-3.1c0-1.4,0.4-2.3,2.4-2.3l2.5,0v-4.3
			c-0.4-0.1-1.9-0.2-3.7-0.2c-3.7,0-6.2,2.2-6.2,6.3v3.5h-4.1v4.8h4.1v12.3H-229.4z"/>
	</g>
</g>
<g id="twitter-hover" class="st0">
	<g class="st1">
		<circle class="st16" cx="-231.1" cy="396.5" r="22.5"/>
		<path class="st14" d="M-231.1,392.3c0,0-5.8,0.6-12.6-6.1c0,0-2.8,4,1.6,7.7c0,0-0.2,0.8-2.5-0.6c0,0-0.4,4.5,4.6,5.9
			c0,0-1.5,0.7-2.6,0c0,0,1.6,4.7,5.7,4.2c0,0-3.9,3.5-8.9,2.7c0,0,10.9,6.6,20.1-1.4c0,0,6.9-5.8,6.1-13.9c0,0,1.5-1.1,3.1-3.1
			c0,0-2.2,1-3.4,0.9c0,0,2.2-1.5,2.5-3.3c0,0-2.6,1.3-3.7,1.4c0,0-1.7-2.2-5.2-2C-229.8,385.2-232.5,389.7-231.1,392.3z"/>
	</g>
</g>
<g id="youtube-hover" class="st0">
	<g class="st1">
		<circle class="st17" cx="-231.1" cy="396.5" r="22.5"/>
		<g>
			<path class="st14" d="M-218,402.3c0,1.5-1.8,3.7-4.3,3.7h-17.3c-2.4,0-5.5-0.7-5.5-3.7v-10.8c0-2.5,1.6-5.4,4.8-5.4h17.5
				c3.7,0,4.7,3.9,4.7,5.4V402.3z"/>
			<polygon class="st17" points="-227.5,396.7 -235,400.5 -235,392.9 			"/>
		</g>
	</g>
</g>
</svg>
