<?xml version="1.0" encoding="utf-8"?>
<!-- Generator: Adobe Illustrator 19.1.0, SVG Export Plug-In . SVG Version: 6.00 Build 0)  -->
<svg version="1.1" id="Layer_2_1_" xmlns="http://www.w3.org/2000/svg" xmlns:xlink="http://www.w3.org/1999/xlink" x="0px" y="0px"
	 viewBox="-268 359 73.8 75" style="enable-background:new -268 359 73.8 75;" xml:space="preserve">
<g>
	<g>
		<g>
			<path d="M-239.9,393.3h18.7v-4.2h-18.7V393.3z M-239.9,382.9h18.7v-4.2h-18.7V382.9z M-201.3,389.8v-0.6h-6.7v4.2h2.7v27
				c0,0.3-0.3,0.4-0.8,0.4H-255c-0.4,0-0.3-0.2-0.3-0.4v-27h2.7v-4.2h-6.7v0.6h0v30.6c0,1.2,0.2,2.2,1.1,3.1
				c0.9,0.9,1.8,1.3,3.2,1.3h48.9c1.4,0,2.5-0.4,3.4-1.3c0.9-0.9,1.3-1.9,1.3-3.1L-201.3,389.8L-201.3,389.8z M-210.8,371.1
				c0-1.3-0.5-2.4-1.5-3.4c-1-1-2.1-1.4-3.4-1.4h-29.8c-1.4,0-2.5,0.5-3.4,1.4s-1.4,2.1-1.4,3.4v34h39.5V371.1z M-215,401h-31.2
				v-29.9c0-0.4,0.2-0.7,0.7-0.7h29.9c0.4,0,0.6,0.2,0.6,0.7V401z"/>
		</g>
	</g>
</g>
</svg>
