<?xml version="1.0" encoding="utf-8"?>
<!-- Generator: Adobe Illustrator 19.1.0, SVG Export Plug-In . SVG Version: 6.00 Build 0)  -->
<svg version="1.1" id="Layer_1" xmlns="http://www.w3.org/2000/svg" xmlns:xlink="http://www.w3.org/1999/xlink" x="0px" y="0px"
	 viewBox="-268 359 73.8 75" style="enable-background:new -268 359 73.8 75;" xml:space="preserve">
<style type="text/css">
	.st0{display:none;}
	.st1{display:inline;}
	.st2{fill:#010101;}
	.st3{display:inline;fill:none;stroke:#010101;stroke-width:4;stroke-miterlimit:10;}
	.st4{display:inline;fill:#010101;}
</style>
<g id="Last_ned" class="st0">
	<g class="st1">
		<path class="st2" d="M-222.2,379.2c1,1,1.5,2.1,1.5,3.4v43h-39.5v-43c0-1.4,0.5-2.5,1.4-3.4c0.9-0.9,2.1-1.4,3.4-1.4h29.8
			C-224.3,377.8-223.2,378.2-222.2,379.2z M-224.9,382.6c0-0.4-0.2-0.7-0.6-0.7h-29.9c-0.4,0-0.7,0.2-0.7,0.7v38.9h31.2
			C-224.9,421.5-224.9,382.6-224.9,382.6z M-249.8,394.4h18.7v-4.2h-18.7V394.4z M-249.8,404.8h18.7v-4.2h-18.7V404.8z
			 M-249.8,415.2h18.7V411h-18.7V415.2z M-203.3,368.7c0.9,0.9,1.4,2,1.4,3.2v41.2h-14.6V409h10.4v-37.1c0-0.3-0.2-0.4-0.7-0.4
			h-29.9c-0.4,0-0.6,0.1-0.6,0.4v1.7h-4.2v-1.7c0-1.2,0.5-2.3,1.4-3.2c0.9-0.9,2.1-1.4,3.4-1.4h29.9
			C-205.4,367.4-204.2,367.8-203.3,368.7z"/>
	</g>
</g>
<g id="RSS">
	<g>
		<circle class="st2" cx="-247.6" cy="409.6" r="4.1"/>
		<g>
			<path class="st2" d="M-252.5,386.8v4.8c5,0.5,11,2.9,14.9,6.8c3.9,3.9,6.8,9.6,7.2,14.6h4.8C-226.5,399-238.5,387.8-252.5,386.8z
				"/>
			<path class="st2" d="M-252.5,371.4v4.8c19,1,36.6,17.9,37.6,36.9h4.8C-211.1,391-230.5,372.4-252.5,371.4z"/>
		</g>
	</g>
</g>
<g id="Ekstern_link" class="st0">
	<g class="st1">
		<path class="st2" d="M-249.5,418c-0.9-0.9-1.4-2-1.4-3.2v-41.2h14.6v4.2h-10.4v37.1c0,0.3,0.2,0.4,0.7,0.4h29.9
			c0.4,0,0.6-0.1,0.6-0.4v-16.2h4.2v16.1c0,1.2-0.5,2.3-1.4,3.2c-0.9,0.9-2.1,1.4-3.4,1.4h-30C-247.4,419.4-248.6,418.9-249.5,418z"
			/>
		<path class="st2" d="M-211.3,373.6v18.3h-3.7V380l-15,14.9l-2.7-2.7l14.9-14.9h-11.9v-3.6L-211.3,373.6z"/>
	</g>
</g>
<g id="Pil" class="st0">
	<polyline class="st3" points="-236.8,385.2 -225.4,396.5 -236.8,407.8 	"/>
</g>
<g id="Kollaps_åpen" class="st0">
	<polyline class="st4" points="-242.8,398.3 -219.4,398.3 -219.4,394.7 -242.8,394.7 	"/>
</g>
<g id="Kollaps_lukket" class="st0">
	<polygon class="st4" points="-219.4,394.7 -229.3,394.7 -229.3,384.8 -232.9,384.8 -232.9,394.7 -242.8,394.7 -242.8,398.3 
		-232.9,398.3 -232.9,408.2 -229.3,408.2 -229.3,398.3 -219.4,398.3 	"/>
</g>
</svg>
